<?xml version="1.0" encoding="UTF-8"?>
<svg width="540" height="388.69" version="1.0" xmlns="http://www.w3.org/2000/svg" xmlns:cc="http://creativecommons.org/ns#" xmlns:dc="http://purl.org/dc/elements/1.1/" xmlns:rdf="http://www.w3.org/1999/02/22-rdf-syntax-ns#">
 <g transform="translate(-8.8912 -30.943)">
  <g transform="translate(8.9651 7.9535)" fill="#fbfbfb">
   <path d="m273.3 69.791h-23.695v-2.4961c0.70312-0.046873 1.7988-0.14648 3.2871-0.29883 1.4883-0.15234 2.5137-0.31054 3.0762-0.47461 0.72655-0.23437 1.2832-0.61523 1.6699-1.1426 0.38671-0.52734 0.58007-1.3184 0.58008-2.373v-24.68h-8.7539v-2.9531h1.9336c2.5312 3.4e-5 4.7988-0.46872 6.8027-1.4062 2.0039-0.93746 3.4394-1.9453 4.3066-3.0234h2.918c-0.07033 1.5235-0.14064 3.3047-0.21093 5.3438-0.07034 2.0391-0.10549 3.8672-0.10547 5.4844v20.848c-2e-5 0.82032 0.18162 1.5527 0.54492 2.1973 0.36326 0.64454 0.88474 1.1191 1.5644 1.4238 0.60935 0.25782 1.6054 0.49219 2.9883 0.70312 1.3828 0.21094 2.414 0.32813 3.0938 0.35156v2.4961z"/>
   <path d="m224.44 130.93h-23.695v-2.4961c0.70312-0.04688 1.7988-0.14649 3.2871-0.29883 1.4883-0.15234 2.5137-0.31055 3.0762-0.47461 0.72655-0.23437 1.2832-0.61523 1.6699-1.1426 0.3867-0.52734 0.58006-1.3184 0.58008-2.373v-24.68h-8.7539v-2.9531h1.9336c2.5312 3.5e-5 4.7988-0.46872 6.8027-1.4062 2.0039-0.93746 3.4394-1.9453 4.3066-3.0234h2.918c-0.07034 1.5235-0.14065 3.3047-0.21094 5.3438-0.07033 2.0391-0.10549 3.8672-0.10547 5.4844v20.848c-2e-5 0.82032 0.18162 1.5527 0.54492 2.1973 0.36326 0.64454 0.88475 1.1191 1.5645 1.4238 0.60935 0.25781 1.6054 0.49219 2.9883 0.70312 1.3828 0.21094 2.414 0.32813 3.0938 0.35157v2.4961z"/>
   <path d="m327.3 130.93h-23.695v-2.4961c0.70312-0.04688 1.7988-0.14649 3.2871-0.29883 1.4883-0.15234 2.5137-0.31055 3.0762-0.47461 0.72655-0.23437 1.2832-0.61523 1.6699-1.1426 0.38671-0.52734 0.58007-1.3184 0.58008-2.373v-24.68h-8.7539v-2.9531h1.9336c2.5312 3.5e-5 4.7988-0.46872 6.8027-1.4062 2.0039-0.93746 3.4394-1.9453 4.3066-3.0234h2.918c-0.07033 1.5235-0.14064 3.3047-0.21093 5.3438-0.07034 2.0391-0.10549 3.8672-0.10547 5.4844v20.848c-2e-5 0.82032 0.18162 1.5527 0.54492 2.1973 0.36326 0.64454 0.88474 1.1191 1.5644 1.4238 0.60935 0.25781 1.6054 0.49219 2.9883 0.70312 1.3828 0.21094 2.414 0.32813 3.0938 0.35157v2.4961z"/>
   <path d="m179.3 192.22h-23.695v-2.4961c0.70312-0.04688 1.7988-0.14649 3.2871-0.29883 1.4883-0.15234 2.5137-0.31055 3.0762-0.47461 0.72655-0.23437 1.2832-0.61523 1.6699-1.1426 0.38671-0.52734 0.58007-1.3184 0.58008-2.373v-24.68h-8.7539v-2.9531h1.9336c2.5312 4e-5 4.7988-0.46871 6.8027-1.4062 2.0039-0.93746 3.4394-1.9453 4.3066-3.0234h2.918c-0.07033 1.5235-0.14064 3.3047-0.21093 5.3438-0.07034 2.0391-0.10549 3.8672-0.10547 5.4844v20.848c-2e-5 0.82032 0.18162 1.5527 0.54492 2.1973 0.36326 0.64454 0.88474 1.1191 1.5644 1.4238 0.60935 0.25781 1.6054 0.49219 2.9883 0.70312 1.3828 0.21094 2.414 0.32813 3.0938 0.35157v2.4961z"/>
   <path d="m281.76 200.31h-33.953v-5.9018c0.65224-0.89683 1.5581-1.9022 2.7177-3.016 1.1595-1.1138 2.5365-2.3217 4.1309-3.6236 0.96629-0.78111 2.1258-1.6346 3.4786-2.5604 1.3528-0.92576 2.8868-1.9383 4.602-3.0377 1.9084-1.2151 3.3759-2.2855 4.4026-3.2113 1.0267-0.92574 1.9628-2.0685 2.8083-3.4283 0.55559-0.89682 1.0025-2.0179 1.3407-3.3632 0.33817-1.3452 0.50728-3.2619 0.5073-5.7499-2e-5 -3.6163-0.80928-6.2707-2.4278-7.9631-1.6186-1.6924-3.6961-2.5386-6.2326-2.5387-1.5702 3e-5 -3.0559 0.3689-4.457 1.1066-1.4011 0.73777-2.452 1.7576-3.1525 3.0594 0.16909 0.92581 0.38047 2.0252 0.63414 3.2981 0.25363 1.273 0.38045 2.517 0.38047 3.732-2e-5 1.0994-0.3805 2.0758-1.1414 2.9292-0.76097 0.85347-1.8903 1.2802-3.388 1.2802-1.2079 4e-5 -2.1379-0.49902-2.7902-1.4972-0.65224-0.99807-0.97837-2.3361-0.97836-4.0141-1e-5 -1.5622 0.36235-3.1317 1.0871-4.7084 0.72472-1.5767 1.7635-3.0305 3.1163-4.3613 1.3286-1.3018 2.9713-2.3578 4.9281-3.1679 1.9567-0.81 4.0705-1.215 6.3413-1.2151 4.9522 5e-5 8.8838 1.3236 11.795 3.9707 2.9109 2.6472 4.3664 6.1839 4.3664 10.61-3e-5 2.112-0.25974 4.0358-0.77908 5.7716-0.51942 1.7359-1.3589 3.2692-2.5184 4.6-1.2804 1.4755-2.7781 2.7412-4.4932 3.7971-1.7152 1.056-4.3363 2.5242-7.8632 4.4047-2.1017 1.1283-4.0584 2.3072-5.8702 3.5368-1.8118 1.2296-3.2975 2.4229-4.457 3.5801h27.865v7.6811z"/>
   <path d="m376.44 192.22h-23.695v-2.4961c0.70312-0.04688 1.7988-0.14649 3.2871-0.29883 1.4883-0.15234 2.5137-0.31055 3.0762-0.47461 0.72655-0.23437 1.2832-0.61523 1.6699-1.1426 0.3867-0.52734 0.58006-1.3184 0.58008-2.373v-24.68h-8.7539v-2.9531h1.9336c2.5312 4e-5 4.7988-0.46871 6.8027-1.4062 2.0039-0.93746 3.4394-1.9453 4.3066-3.0234h2.918c-0.07034 1.5235-0.14065 3.3047-0.21094 5.3438-0.07033 2.0391-0.10549 3.8672-0.10547 5.4844v20.848c-2e-5 0.82032 0.18162 1.5527 0.54492 2.1973 0.36326 0.64454 0.88475 1.1191 1.5645 1.4238 0.60935 0.25781 1.6054 0.49219 2.9883 0.70312 1.3828 0.21094 2.414 0.32813 3.0938 0.35157v2.4961z"/>
   <path d="m133.87 259.06h-23.695v-2.4961c0.70312-0.04687 1.7988-0.14648 3.2871-0.29883 1.4883-0.15234 2.5137-0.31054 3.0762-0.47461 0.72655-0.23437 1.2832-0.61523 1.6699-1.1426 0.38671-0.52733 0.58007-1.3184 0.58008-2.373v-24.68h-8.7539v-2.9531h1.9336c2.5312 3e-5 4.7988-0.46872 6.8027-1.4062 2.0039-0.93747 3.4394-1.9453 4.3066-3.0234h2.918c-0.07033 1.5235-0.14065 3.3047-0.21094 5.3438-0.07033 2.0391-0.10549 3.8672-0.10547 5.4844v20.848c-2e-5 0.82032 0.18162 1.5527 0.54493 2.1973 0.36326 0.64454 0.88474 1.1192 1.5644 1.4238 0.60935 0.25782 1.6054 0.49219 2.9883 0.70313 1.3828 0.21094 2.414 0.32813 3.0938 0.35156v2.4961z"/>
   <path d="m209.42 265.48c-2.2031-1e-5 -4.2188-0.2754-6.0469-0.82617-1.8281-0.5508-3.3984-1.2949-4.7109-2.2324-1.3125-0.93751-2.3262-2.0156-3.041-3.2344-0.71485-1.2188-1.0723-2.4727-1.0723-3.7617 0-1.1484 0.28125-2.1856 0.84375-3.1113s1.4648-1.3887 2.707-1.3887c1.4062 0 2.4785 0.34571 3.2168 1.0371 0.73827 0.69141 1.1074 1.4824 1.1074 2.373-1e-5 0.75-0.12305 1.6992-0.36914 2.8476-0.2461 1.1484-0.43946 1.9688-0.58007 2.4609 0.16405 0.21093 0.46288 0.49218 0.89648 0.84375 0.43358 0.35156 0.96679 0.66796 1.5996 0.94922 0.74999 0.35155 1.5351 0.6328 2.3555 0.84375 0.8203 0.21093 1.9804 0.3164 3.4805 0.31641 1.4062-1e-5 2.7597-0.23439 4.0605-0.70313 1.3008-0.46876 2.4433-1.2188 3.4277-2.25 1.0312-1.0781 1.834-2.3379 2.4082-3.7793 0.57419-1.4414 0.8613-3.334 0.86133-5.6777-3e-5 -1.2656-0.13479-2.5195-0.4043-3.7617-0.26956-1.2422-0.7676-2.3203-1.4941-3.2344-0.72659-0.91406-1.7168-1.623-2.9707-2.127-1.2539-0.50389-2.8418-0.75584-4.7637-0.75586h-4.6055v-4.043h3.0586c3.2344 1e-5 5.5664-0.89061 6.9961-2.6719 1.4297-1.7812 2.1445-4.4648 2.1445-8.0508-3e-5 -2.9297-0.69143-5.1386-2.0742-6.627-1.3828-1.4882-3.3399-2.2324-5.8711-2.2324-1.2188 4e-5 -2.2207 0.14652-3.0059 0.43946-0.78517 0.293-1.4238 0.58011-1.916 0.86133-0.58595 0.32816-1.0664 0.69144-1.4414 1.0898-0.37501 0.39847-0.65626 0.69144-0.84375 0.87891 0.16405 0.75003 0.36327 1.67 0.59766 2.7598 0.23436 1.0899 0.35155 2.127 0.35156 3.1113-1e-5 0.86721-0.36915 1.6465-1.1074 2.3379-0.73829 0.69143-1.8223 1.0371-3.252 1.0371-1.2422 2e-5 -2.1504-0.44529-2.7246-1.3359-0.57423-0.8906-0.86133-1.9218-0.86133-3.0938 0-1.2187 0.33984-2.4609 1.0195-3.7266 0.67968-1.2656 1.6875-2.4492 3.0234-3.5508 1.3359-1.1015 2.9648-1.9922 4.8867-2.6719 1.9219-0.67965 4.1367-1.0195 6.6445-1.0195 2.8828 4e-5 5.2676 0.42777 7.1543 1.2832 1.8867 0.8555 3.3691 1.8926 4.4473 3.1113 1.0547 1.1954 1.7812 2.4492 2.1797 3.7617 0.3984 1.3125 0.59762 2.4375 0.59765 3.375-3e-5 1.1719-0.16409 2.3496-0.49218 3.5332-0.32816 1.1836-0.86722 2.2793-1.6172 3.2871-0.82034 1.1016-1.9043 2.1035-3.252 3.0059-1.3477 0.90236-3.041 1.6348-5.0801 2.1973v0.5625c1.3125 0.1172 2.7129 0.41017 4.2012 0.87891 1.4882 0.46876 2.83 1.1602 4.0254 2.0742 1.2422 0.96095 2.2617 2.1973 3.0586 3.709 0.79684 1.5117 1.1953 3.4277 1.1953 5.748-4e-5 4.5-1.8047 8.1504-5.4141 10.951-3.6094 2.8008-8.1211 4.2012-13.535 4.2012z"/>
   <path d="m307.46 265.48c-2.2031-1e-5 -4.2188-0.2754-6.0469-0.82617-1.8281-0.5508-3.3984-1.2949-4.7109-2.2324-1.3125-0.93751-2.3262-2.0156-3.041-3.2344-0.71485-1.2188-1.0723-2.4727-1.0723-3.7617 0-1.1484 0.28125-2.1856 0.84375-3.1113s1.4648-1.3887 2.707-1.3887c1.4062 0 2.4785 0.34571 3.2168 1.0371 0.73827 0.69141 1.1074 1.4824 1.1074 2.373-1e-5 0.75-0.12306 1.6992-0.36914 2.8476-0.2461 1.1484-0.43946 1.9688-0.58008 2.4609 0.16406 0.21093 0.46288 0.49218 0.89649 0.84375 0.43358 0.35156 0.96678 0.66796 1.5996 0.94922 0.74998 0.35155 1.5351 0.6328 2.3555 0.84375 0.8203 0.21093 1.9805 0.3164 3.4805 0.31641 1.4062-1e-5 2.7598-0.23439 4.0606-0.70313 1.3008-0.46876 2.4433-1.2188 3.4277-2.25 1.0312-1.0781 1.834-2.3379 2.4082-3.7793 0.57419-1.4414 0.8613-3.334 0.86133-5.6777-3e-5 -1.2656-0.1348-2.5195-0.4043-3.7617-0.26956-1.2422-0.76761-2.3203-1.4941-3.2344-0.72659-0.91406-1.7168-1.623-2.9707-2.127-1.2539-0.50389-2.8418-0.75584-4.7637-0.75586h-4.6055v-4.043h3.0586c3.2344 1e-5 5.5664-0.89061 6.9961-2.6719 1.4297-1.7812 2.1445-4.4648 2.1445-8.0508-2e-5 -2.9297-0.69143-5.1386-2.0742-6.627-1.3828-1.4882-3.3399-2.2324-5.8711-2.2324-1.2188 4e-5 -2.2207 0.14652-3.0059 0.43946-0.78517 0.293-1.4238 0.58011-1.916 0.86133-0.58595 0.32816-1.0664 0.69144-1.4414 1.0898-0.37501 0.39847-0.65626 0.69144-0.84375 0.87891 0.16405 0.75003 0.36327 1.67 0.59766 2.7598 0.23436 1.0899 0.35155 2.127 0.35156 3.1113-1e-5 0.86721-0.36915 1.6465-1.1074 2.3379-0.73829 0.69143-1.8223 1.0371-3.252 1.0371-1.2422 2e-5 -2.1504-0.44529-2.7246-1.3359-0.57422-0.8906-0.86133-1.9218-0.86132-3.0938-1e-5 -1.2187 0.33984-2.4609 1.0195-3.7266 0.67968-1.2656 1.6875-2.4492 3.0234-3.5508 1.3359-1.1015 2.9648-1.9922 4.8867-2.6719 1.9219-0.67965 4.1367-1.0195 6.6445-1.0195 2.8828 4e-5 5.2676 0.42777 7.1543 1.2832 1.8867 0.8555 3.3691 1.8926 4.4473 3.1113 1.0546 1.1954 1.7812 2.4492 2.1797 3.7617 0.39841 1.3125 0.59763 2.4375 0.59766 3.375-3e-5 1.1719-0.1641 2.3496-0.49219 3.5332-0.32815 1.1836-0.86722 2.2793-1.6172 3.2871-0.82035 1.1016-1.9043 2.1035-3.252 3.0059-1.3477 0.90236-3.041 1.6348-5.0801 2.1973v0.5625c1.3125 0.1172 2.7129 0.41017 4.2012 0.87891 1.4882 0.46876 2.83 1.1602 4.0254 2.0742 1.2422 0.96095 2.2617 2.1973 3.0586 3.709 0.79684 1.5117 1.1953 3.4277 1.1953 5.748-3e-5 4.5-1.8047 8.1504-5.4141 10.951-3.6094 2.8008-8.1211 4.2012-13.535 4.2012z"/>
   <path d="m419.58 259.06h-23.695v-2.4961c0.70312-0.04687 1.7988-0.14648 3.2871-0.29883 1.4883-0.15234 2.5137-0.31054 3.0762-0.47461 0.72655-0.23437 1.2832-0.61523 1.6699-1.1426 0.38671-0.52733 0.58006-1.3184 0.58008-2.373v-24.68h-8.7539v-2.9531h1.9336c2.5312 3e-5 4.7988-0.46872 6.8027-1.4062 2.0039-0.93747 3.4394-1.9453 4.3066-3.0234h2.918c-0.07033 1.5235-0.14065 3.3047-0.21094 5.3438-0.07033 2.0391-0.10549 3.8672-0.10547 5.4844v20.848c-2e-5 0.82032 0.18162 1.5527 0.54492 2.1973 0.36326 0.64454 0.88475 1.1192 1.5645 1.4238 0.60935 0.25782 1.6054 0.49219 2.9883 0.70313 1.3828 0.21094 2.414 0.32813 3.0938 0.35156v2.4961z" color="#fbfbfb"/>
   <path d="m80.441 326.49h-23.695v-2.4961c0.70312-0.04687 1.7988-0.14648 3.2871-0.29883 1.4883-0.15234 2.5137-0.31054 3.0762-0.47461 0.72655-0.23437 1.2832-0.61523 1.6699-1.1426 0.3867-0.52734 0.58006-1.3184 0.58008-2.373v-24.68h-8.7539v-2.9531h1.9336c2.5312 4e-5 4.7988-0.46871 6.8027-1.4062 2.0039-0.93746 3.4394-1.9453 4.3066-3.0234h2.918c-0.070333 1.5235-0.14064 3.3047-0.21094 5.3438-0.070333 2.0391-0.10549 3.8672-0.10547 5.4844v20.848c-2e-5 0.82032 0.18162 1.5527 0.54492 2.1973 0.36326 0.64454 0.88474 1.1192 1.5645 1.4238 0.60935 0.25782 1.6054 0.49219 2.9883 0.70313 1.3828 0.21094 2.414 0.32812 3.0938 0.35156v2.4961z"/>
   <path d="m172.49 316.81h-7.1367v15.996h-6.75v-15.996h-22.5v-5.4141l24.645-30.059h4.6055v30.867h7.1367v4.6055zm-13.887-4.6055v-23.027l-18.984 23.027h18.984z"/>
   <path d="m272.57 315.86c-3e-5 2.4375-0.43949 4.7227-1.3184 6.8555-0.87894 2.1328-2.0567 3.9492-3.5332 5.4492-1.711 1.7109-3.6035 2.9766-5.6777 3.7969-2.0742 0.82031-4.2364 1.2305-6.4863 1.2305-2.6016 0-4.957-0.48047-7.0664-1.4414-2.1094-0.96093-3.9024-2.3203-5.3789-4.0781-1.5-1.7812-2.6602-3.9609-3.4805-6.5391-0.82032-2.5781-1.2305-5.4726-1.2305-8.6836 0-8.3672 2.4902-15.422 7.4707-21.164 4.9804-5.7421 11.654-9.1874 20.021-10.336l0.63281 3.1641-3.1641 0.5625c-5.086 1.6407-9.0176 4.1954-11.795 7.6641-2.7774 3.4688-4.5762 7.6758-5.3965 12.621 2.0156-1.7578 4.0078-3 5.9766-3.7266 1.9687-0.72653 4.043-1.0898 6.2227-1.0898 3.914 4e-5 7.2597 1.5 10.037 4.5 2.7773 3 4.166 6.7383 4.166 11.215zm-7.6289 0.94922c-3e-5 -3.7969-0.87308-6.8437-2.6191-9.1406-1.7461-2.2968-4.084-3.4453-7.0137-3.4453-1.7578 3e-5 -3.3926 0.32815-4.9043 0.98437-1.5117 0.65628-2.9707 1.7578-4.377 3.3047-0.02345 0.28127-0.05861 0.93166-0.10547 1.9512-0.04689 1.0196-0.07033 1.8223-0.07032 2.4082-1e-5 5.4844 0.89648 9.7793 2.6895 12.885 1.793 3.1055 4.1543 4.6582 7.084 4.6582 2.789 1e-5 5.039-1.2129 6.75-3.6387 1.7109-2.4258 2.5664-5.748 2.5664-9.9668z"/>
   <path d="m385.84 316.81h-7.1367v15.996h-6.75v-15.996h-22.5v-5.4141l24.645-30.059h4.6055v30.867h7.1367v4.6055zm-13.887-4.6055v-23.027l-18.984 23.027h18.984z"/>
   <path d="m483.3 326.49h-23.695v-2.4961c0.70312-0.04687 1.7988-0.14648 3.2871-0.29883 1.4883-0.15234 2.5137-0.31054 3.0762-0.47461 0.72655-0.23437 1.2832-0.61523 1.6699-1.1426 0.38671-0.52734 0.58007-1.3184 0.58008-2.373v-24.68h-8.7539v-2.9531h1.9336c2.5312 4e-5 4.7988-0.46871 6.8027-1.4062 2.0039-0.93746 3.4394-1.9453 4.3066-3.0234h2.918c-0.07033 1.5235-0.14064 3.3047-0.21093 5.3438-0.07034 2.0391-0.10549 3.8672-0.10547 5.4844v20.848c-2e-5 0.82032 0.18162 1.5527 0.54492 2.1973 0.36326 0.64454 0.88474 1.1192 1.5644 1.4238 0.60935 0.25782 1.6054 0.49219 2.9883 0.70313 1.3828 0.21094 2.414 0.32812 3.0938 0.35156v2.4961z"/>
   <path d="m32.727 395.78h-23.695v-2.4961c0.70312-0.04687 1.7988-0.14648 3.2871-0.29882 1.4883-0.15234 2.5137-0.31055 3.0762-0.47461 0.72655-0.23437 1.2832-0.61523 1.6699-1.1426 0.38671-0.52734 0.58006-1.3184 0.58008-2.373v-24.68h-8.7539v-2.9531h1.9336c2.5312 3e-5 4.7988-0.46872 6.8027-1.4062 2.0039-0.93746 3.4394-1.9453 4.3066-3.0234h2.918c-0.070333 1.5235-0.14064 3.3047-0.21094 5.3438-0.070333 2.0391-0.10549 3.8672-0.10547 5.4844v20.848c-2e-5 0.82032 0.18162 1.5527 0.54492 2.1973 0.36326 0.64453 0.88474 1.1191 1.5645 1.4238 0.60935 0.25781 1.6054 0.49219 2.9883 0.70312 1.3828 0.21094 2.414 0.32813 3.0938 0.35156v2.4961z"/>
   <path d="m114.51 372.31c1.5468 1.2188 2.83 2.7891 3.8496 4.7109 1.0195 1.9219 1.5293 4.3242 1.5293 7.207-4e-5 5.0391-1.7227 9.1992-5.168 12.48-3.4453 3.2812-7.8164 4.9219-13.113 4.9219-4.1016-1e-5 -7.5703-0.97266-10.406-2.918-2.8359-1.9453-4.2539-4.207-4.2539-6.7852-2e-6 -1.1953 0.29297-2.2383 0.87891-3.1289 0.58593-0.89062 1.4883-1.3359 2.707-1.3359 1.4062 0 2.4785 0.36914 3.2168 1.1074 0.73827 0.73828 1.1074 1.541 1.1074 2.4082-1e-5 0.75-0.12892 1.6875-0.38672 2.8125-0.25782 1.125-0.45704 1.957-0.59766 2.4961 0.18749 0.16406 0.49218 0.38671 0.91406 0.66797 0.42186 0.28124 0.92577 0.55078 1.5117 0.8086 0.60936 0.2578 1.3535 0.48632 2.2324 0.68554 0.87889 0.19921 1.9043 0.29882 3.0762 0.29883 1.5-1e-5 2.918-0.3047 4.2539-0.91406 1.3359-0.60938 2.4609-1.5117 3.375-2.707 1.0078-1.3125 1.7636-2.8066 2.2676-4.4824 0.50388-1.6758 0.75583-3.8027 0.75586-6.3809-3e-5 -3.3047-0.91995-6.041-2.7598-8.209-1.8399-2.168-4.2598-3.2519-7.2598-3.252-1.875 1e-5 -3.627 0.35158-5.2559 1.0547-1.6289 0.70314-3.0879 1.875-4.377 3.5156l-2.3555-0.91406 2.9883-25.383h25.172v6.2578h-22.324l-1.8281 14.906c1.0547-0.74998 2.4433-1.4941 4.166-2.2324 1.7226-0.73826 3.6152-1.1074 5.6777-1.1074 1.7109 2e-5 3.4863 0.26369 5.3262 0.79101 1.8398 0.52736 3.5332 1.4004 5.0801 2.6191z"/>
   <path d="m197.87 395.22h-23.695v-2.4961c0.70312-0.04687 1.7988-0.14648 3.2871-0.29882 1.4883-0.15234 2.5137-0.31055 3.0762-0.47461 0.72655-0.23437 1.2832-0.61523 1.6699-1.1426 0.3867-0.52734 0.58006-1.3184 0.58008-2.373v-24.68h-8.7539v-2.9531h1.9336c2.5312 3e-5 4.7988-0.46872 6.8027-1.4062 2.0039-0.93746 3.4394-1.9453 4.3066-3.0234h2.918c-0.07033 1.5235-0.14065 3.3047-0.21094 5.3438-0.07033 2.0391-0.10549 3.8672-0.10547 5.4844v20.848c-2e-5 0.82032 0.18162 1.5527 0.54492 2.1973 0.36326 0.64453 0.88475 1.1191 1.5645 1.4238 0.60935 0.25781 1.6054 0.49219 2.9883 0.70312 1.3828 0.21094 2.414 0.32813 3.0938 0.35156v2.4961zm38.602-32.836c1.5 1.8047 2.6191 3.92 3.3574 6.3457 0.73824 2.4258 1.1074 4.9629 1.1074 7.6113-4e-5 3.1875-0.45707 6.041-1.3711 8.5606-0.9141 2.5195-2.168 4.6113-3.7617 6.2754-1.6407 1.7109-3.586 3-5.8359 3.8672-2.25 0.86718-4.7578 1.3008-7.5234 1.3008-3.0235 0-5.7188-0.50391-8.0859-1.5117-2.3672-1.0078-4.2891-2.3906-5.7656-4.1484-1.5469-1.8281-2.7012-3.9668-3.4629-6.416-0.76172-2.4492-1.1426-5.0918-1.1426-7.9277-1e-5 -2.789 0.36913-5.3554 1.1074-7.6992 0.73827-2.3437 1.8926-4.4648 3.4629-6.3633 1.5-1.8281 3.4336-3.2695 5.8008-4.3242 2.3672-1.0546 5.0742-1.582 8.1211-1.582 3.2109 4e-5 5.9648 0.5391 8.2617 1.6172 2.2968 1.0782 4.207 2.543 5.7305 4.3945zm-3.3047 13.957c-3e-5 -5.5781-0.95511-9.9023-2.8652-12.973-1.9102-3.0703-4.5059-4.6054-7.7871-4.6055-3.3281 3e-5 -5.9531 1.5352-7.875 4.6055-1.9219 3.0703-2.8828 7.3946-2.8828 12.973-1e-5 5.2969 0.91991 9.5566 2.7598 12.779 1.8398 3.2227 4.4824 4.834 7.9277 4.834 3.4453 0 6.0937-1.6113 7.9453-4.834 1.8515-3.2226 2.7773-7.4824 2.7773-12.779z" color="#fbfbfb" style="block-progression:tb;text-indent:0;text-transform:none"/>
   <path d="m318.69 395.22h-23.695v-2.4961c0.70312-0.04687 1.7988-0.14648 3.2871-0.29882 1.4883-0.15234 2.5137-0.31055 3.0762-0.47461 0.72655-0.23437 1.2832-0.61523 1.6699-1.1426 0.3867-0.52734 0.58006-1.3184 0.58007-2.373v-24.68h-8.7539v-2.9531h1.9336c2.5312 3e-5 4.7988-0.46872 6.8027-1.4062 2.0039-0.93746 3.4394-1.9453 4.3066-3.0234h2.918c-0.07033 1.5235-0.14064 3.3047-0.21093 5.3438-0.07034 2.0391-0.10549 3.8672-0.10547 5.4844v20.848c-2e-5 0.82032 0.18162 1.5527 0.54492 2.1973 0.36326 0.64453 0.88474 1.1191 1.5644 1.4238 0.60936 0.25781 1.6054 0.49219 2.9883 0.70312 1.3828 0.21094 2.414 0.32813 3.0938 0.35156v2.4961zm38.602-32.836c1.5 1.8047 2.6191 3.92 3.3574 6.3457 0.73824 2.4258 1.1074 4.9629 1.1074 7.6113-4e-5 3.1875-0.45707 6.041-1.3711 8.5606-0.9141 2.5195-2.168 4.6113-3.7617 6.2754-1.6407 1.7109-3.586 3-5.8359 3.8672-2.25 0.86718-4.7578 1.3008-7.5234 1.3008-3.0234 0-5.7188-0.50391-8.0859-1.5117-2.3672-1.0078-4.2891-2.3906-5.7656-4.1484-1.5469-1.8281-2.7012-3.9668-3.4629-6.416-0.76172-2.4492-1.1426-5.0918-1.1426-7.9277 0-2.789 0.36914-5.3554 1.1074-7.6992 0.73828-2.3437 1.8926-4.4648 3.4629-6.3633 1.5-1.8281 3.4336-3.2695 5.8008-4.3242 2.3672-1.0546 5.0742-1.582 8.1211-1.582 3.2109 4e-5 5.9648 0.5391 8.2617 1.6172 2.2968 1.0782 4.207 2.543 5.7305 4.3945zm-3.3047 13.957c-3e-5 -5.5781-0.95511-9.9023-2.8652-12.973-1.9102-3.0703-4.5059-4.6054-7.7871-4.6055-3.3282 3e-5 -5.9532 1.5352-7.875 4.6055-1.9219 3.0703-2.8828 7.3946-2.8828 12.973-1e-5 5.2969 0.91991 9.5566 2.7598 12.779 1.8398 3.2227 4.4824 4.834 7.9277 4.834 3.4453 0 6.0937-1.6113 7.9453-4.834 1.8515-3.2226 2.7773-7.4824 2.7773-12.779z" color="#fbfbfb" style="block-progression:tb;text-indent:0;text-transform:none"/>
   <path d="m442.96 372.31c1.5468 1.2188 2.83 2.7891 3.8496 4.7109 1.0195 1.9219 1.5293 4.3242 1.5293 7.207-4e-5 5.0391-1.7227 9.1992-5.168 12.48-3.4453 3.2812-7.8164 4.9219-13.113 4.9219-4.1016-1e-5 -7.5703-0.97266-10.406-2.918-2.836-1.9453-4.2539-4.207-4.2539-6.7852 0-1.1953 0.29297-2.2383 0.87891-3.1289 0.58593-0.89062 1.4883-1.3359 2.707-1.3359 1.4062 0 2.4785 0.36914 3.2168 1.1074 0.73828 0.73828 1.1074 1.541 1.1074 2.4082-1e-5 0.75-0.12892 1.6875-0.38672 2.8125-0.25782 1.125-0.45704 1.957-0.59766 2.4961 0.18749 0.16406 0.49218 0.38671 0.91406 0.66797 0.42187 0.28124 0.92577 0.55078 1.5117 0.8086 0.60936 0.2578 1.3535 0.48632 2.2324 0.68554 0.8789 0.19921 1.9043 0.29882 3.0762 0.29883 1.5-1e-5 2.9179-0.3047 4.2539-0.91406 1.3359-0.60938 2.4609-1.5117 3.375-2.707 1.0078-1.3125 1.7636-2.8066 2.2676-4.4824 0.50388-1.6758 0.75583-3.8027 0.75586-6.3809-3e-5 -3.3047-0.91995-6.041-2.7598-8.209-1.8399-2.168-4.2598-3.2519-7.2598-3.252-1.875 1e-5 -3.627 0.35158-5.2559 1.0547-1.6289 0.70314-3.0879 1.875-4.377 3.5156l-2.3555-0.91406 2.9883-25.383h25.172v6.2578h-22.324l-1.8281 14.906c1.0547-0.74998 2.4434-1.4941 4.166-2.2324 1.7226-0.73826 3.6152-1.1074 5.6777-1.1074 1.7109 2e-5 3.4863 0.26369 5.3262 0.79101 1.8398 0.52736 3.5332 1.4004 5.0801 2.6191z"/>
   <path d="m525.58 395.78h-23.695v-2.4961c0.70312-0.04687 1.7988-0.14648 3.2871-0.29882 1.4883-0.15234 2.5137-0.31055 3.0762-0.47461 0.72655-0.23437 1.2832-0.61523 1.6699-1.1426 0.38671-0.52734 0.58006-1.3184 0.58008-2.373v-24.68h-8.7539v-2.9531h1.9336c2.5312 3e-5 4.7988-0.46872 6.8027-1.4062 2.0039-0.93746 3.4394-1.9453 4.3066-3.0234h2.918c-0.07033 1.5235-0.14065 3.3047-0.21094 5.3438-0.07033 2.0391-0.10549 3.8672-0.10547 5.4844v20.848c-2e-5 0.82032 0.18162 1.5527 0.54492 2.1973 0.36326 0.64453 0.88475 1.1191 1.5645 1.4238 0.60935 0.25781 1.6054 0.49219 2.9883 0.70312 1.3828 0.21094 2.414 0.32813 3.0938 0.35156v2.4961z"/>
  </g>
 </g>
</svg>
